<svg width="133" height="133" viewBox="0 0 133 133" fill="none" xmlns="http://www.w3.org/2000/svg">
<g clip-path="url(#clip0_126_1167)">
<path d="M114.291 10.3917H105.974V8.31693C105.974 3.724 102.25 0 97.6575 0C93.0645 0 89.3405 3.724 89.3405 8.31693V16.6339C89.3405 18.2121 90.2272 19.5599 91.5217 20.2692C91.7523 19.3825 92.5325 18.7087 93.4901 18.7087C94.6251 18.7087 95.5649 19.6485 95.5649 20.7835V24.9331C95.5649 26.068 94.6251 27.0079 93.4901 27.0079C92.3552 27.0079 91.4153 26.068 91.4153 24.9331V24.6493C87.8332 23.7095 85.1732 20.4997 85.1732 16.6339V10.3917H41.5669V8.31693C41.5669 3.724 37.8429 0 33.25 0C28.6571 0 24.9331 3.724 24.9331 8.31693V16.6339C24.9331 18.2121 25.8197 19.5599 27.1143 20.2692C27.3448 19.3825 28.1251 18.7087 29.0827 18.7087C30.2176 18.7087 31.1575 19.6485 31.1575 20.7835V24.9331C31.1575 26.068 30.2176 27.0079 29.0827 27.0079C27.9477 27.0079 27.0079 26.068 27.0079 24.9331V24.6493C23.4257 23.7095 20.7657 20.4997 20.7657 16.6339V10.3917H8.31693C3.724 10.3917 0 14.1157 0 18.7087V114.309C0 118.902 3.724 122.626 8.31693 122.626H114.309C118.902 122.626 122.626 118.902 122.626 114.309V18.7087C122.608 14.1157 118.884 10.3917 114.291 10.3917ZM93.5079 10.3917V8.31693C93.5079 6.02933 95.3699 4.16733 97.6575 4.16733C99.9451 4.16733 101.807 6.02933 101.807 8.31693V10.3917H93.5079ZM29.1004 10.3917V8.31693C29.1004 6.02933 30.9624 4.16733 33.25 4.16733C35.5376 4.16733 37.3996 6.02933 37.3996 8.31693V10.3917H29.1004ZM118.459 114.291C118.459 116.579 116.597 118.441 114.309 118.441H8.31693C6.02933 118.441 4.16733 116.579 4.16733 114.291V35.3248H118.459V114.291Z" fill="#4B4D99"/>
<path d="M12.4665 43.6417H29.1004C30.2531 43.6417 31.1752 44.5639 31.1752 45.7165V58.1831C31.1752 59.3357 30.2531 60.2579 29.1004 60.2579H12.4665C11.3139 60.2579 10.3917 59.3357 10.3917 58.1831V45.7165C10.3917 44.5639 11.3139 43.6417 12.4665 43.6417Z" fill="#4B4D99"/>
<path d="M66.5 43.6417H83.1338C84.2865 43.6417 85.2086 44.5639 85.2086 45.7165V58.1831C85.2086 59.3357 84.2865 60.2579 83.1338 60.2579H66.5C65.3473 60.2579 64.4252 59.3357 64.4252 58.1831V45.7165C64.4252 44.5639 65.3473 43.6417 66.5 43.6417Z" fill="#4B4D99"/>
<path d="M93.5079 43.6417H110.142C111.294 43.6417 112.217 44.5639 112.217 45.7165V58.1831C112.217 59.3357 111.294 60.2579 110.142 60.2579H93.5079C92.3552 60.2579 91.4331 59.3357 91.4331 58.1831V45.7165C91.4331 44.5639 92.373 43.6417 93.5079 43.6417Z" fill="#4B4D99"/>
<path d="M12.4665 68.5748H29.1004C30.2531 68.5748 31.1752 69.497 31.1752 70.6496V83.1162C31.1752 84.2688 30.2531 85.191 29.1004 85.191H12.4665C11.3139 85.191 10.3917 84.2688 10.3917 83.1162V70.6496C10.3917 69.5147 11.3139 68.5748 12.4665 68.5748Z" fill="#4B4D99"/>
<path d="M39.4922 68.5748H56.1083C57.261 68.5748 58.1831 69.497 58.1831 70.6496V83.1162C58.1831 84.2688 57.261 85.191 56.1083 85.191H39.4922C38.3395 85.191 37.4174 84.2688 37.4174 83.1162V70.6496C37.3996 69.5147 38.3395 68.5748 39.4922 68.5748Z" fill="#4B4D99"/>
<path d="M66.5 68.5748H83.1338C84.2865 68.5748 85.2086 69.497 85.2086 70.6496V83.1162C85.2086 84.2688 84.2865 85.191 83.1338 85.191H66.5C65.3473 85.191 64.4252 84.2688 64.4252 83.1162V70.6496C64.4252 69.5147 65.3473 68.5748 66.5 68.5748Z" fill="#4B4D99"/>
<path d="M93.5079 68.5748H110.142C111.294 68.5748 112.217 69.497 112.217 70.6496V83.1162C112.217 84.2688 111.294 85.191 110.142 85.191H93.5079C92.3552 85.191 91.4331 84.2688 91.4331 83.1162V70.6496C91.4331 69.5147 92.373 68.5748 93.5079 68.5748Z" fill="#4B4D99"/>
<path d="M12.4665 93.5078H29.1004C30.2531 93.5078 31.1752 94.4299 31.1752 95.5826V108.049C31.1752 109.202 30.2531 110.124 29.1004 110.124H12.4665C11.3139 110.124 10.3917 109.202 10.3917 108.049V95.5826C10.3917 94.4477 11.3139 93.5078 12.4665 93.5078Z" fill="#4B4D99"/>
<path d="M39.4922 93.5078H56.1083C57.261 93.5078 58.1831 94.4299 58.1831 95.5826V108.049C58.1831 109.202 57.261 110.124 56.1083 110.124H39.4922C38.3395 110.124 37.4174 109.202 37.4174 108.049V95.5826C37.3996 94.4477 38.3395 93.5078 39.4922 93.5078Z" fill="#4B4D99"/>
<path d="M66.5 93.5078H83.1338C84.2865 93.5078 85.2086 94.4299 85.2086 95.5826V108.049C85.2086 109.202 84.2865 110.124 83.1338 110.124H66.5C65.3473 110.124 64.4252 109.202 64.4252 108.049V95.5826C64.4252 94.4477 65.3473 93.5078 66.5 93.5078Z" fill="#4B4D99"/>
<path d="M93.5079 93.5078H110.142C111.294 93.5078 112.217 94.4299 112.217 95.5826V108.049C112.217 109.202 111.294 110.124 110.142 110.124H93.5079C92.3552 110.124 91.4331 109.202 91.4331 108.049V95.5826C91.4331 94.4477 92.373 93.5078 93.5079 93.5078Z" fill="#4B4D99"/>
<path d="M44.2447 59.655C44.6348 60.0451 45.1668 60.2579 45.7165 60.2579H45.8052C46.3904 60.2402 46.9401 59.9564 47.3125 59.5131L57.7043 47.0466C58.4313 46.1599 58.3249 44.8476 57.4383 44.1206C56.5516 43.3935 55.2393 43.4999 54.5123 44.3866L45.5747 55.1152L40.9463 50.4868C40.1305 49.6711 38.8183 49.6711 38.0025 50.4868C37.1868 51.3026 37.1868 52.6148 38.0025 53.4306C38.0203 53.4306 44.2447 59.655 44.2447 59.655Z" fill="#FBCF71"/>
<path d="M126.758 18.9746V39.4921H133V27.0255C133 23.1419 130.358 19.879 126.758 18.9746Z" fill="#4B4D99"/>
<path d="M126.758 114.291C126.758 121.172 121.172 126.758 114.291 126.758H12.7325C13.6547 130.358 16.9176 133 20.7835 133H124.683C129.276 133 133 129.276 133 124.683V43.6417H126.758V114.291Z" fill="#4B4D99"/>
</g>
<defs>
<clipPath id="clip0_126_1167">
<rect width="133" height="133" fill="white"/>
</clipPath>
</defs>
</svg>
