<svg width="127" height="123" viewBox="0 0 127 123" fill="none" xmlns="http://www.w3.org/2000/svg">
<g clip-path="url(#clip0_126_1135)">
<path d="M116.12 37.8887C116.12 58.8288 99.1535 75.7773 78.1917 75.7773C57.23 75.7773 40.2638 58.8288 40.2638 37.8887C40.2024 16.9486 57.23 0 78.1917 0C99.092 0 116.12 16.9486 116.12 37.8887Z" fill="#FBCF71"/>
<path d="M97.6167 42.6171C100.321 39.8537 101.366 37.029 101.366 33.4673C101.366 26.2826 95.5267 20.4489 88.3345 20.4489C84.2159 20.4489 80.5276 22.3525 78.1302 25.3615C75.7329 22.3525 72.0446 20.4489 67.926 20.4489C60.7338 20.4489 54.894 26.2826 54.894 33.4673C54.894 37.2132 56.4308 40.5906 58.9512 42.9241C59.3815 43.354 78.1302 58.706 78.1302 58.706C78.1302 58.706 93.1908 47.1613 97.6167 42.6171Z" fill="white"/>
<path d="M60.242 35.1254H13.0934C6.82332 35.1254 1.72119 40.038 1.72119 46.1174V77.9267C1.72119 84.006 6.82332 88.9187 13.0934 88.9187H19.7938C19.4864 91.0065 18.1341 95.2437 11.8025 98.7439C1.96708 104.209 35.6534 100.893 47.333 88.9187H60.242C66.5121 88.9187 71.6142 84.006 71.6142 77.9267V46.1174C71.6142 40.038 66.5121 35.1254 60.242 35.1254Z" fill="white" stroke="#4B4D99" stroke-width="5.4781" stroke-miterlimit="10" stroke-linecap="round" stroke-linejoin="round"/>
<path d="M25.4492 62.5747C25.4492 65.6451 22.9288 68.1628 19.8553 68.1628C16.7817 68.1628 14.2614 65.6451 14.2614 62.5747C14.2614 59.5043 16.7817 56.9866 19.8553 56.9866C22.9288 56.9866 25.4492 59.5043 25.4492 62.5747Z" fill="white"/>
<path d="M25.4492 62.5747C25.4492 65.6451 22.9288 68.1628 19.8553 68.1628C16.7817 68.1628 14.2614 65.6451 14.2614 62.5747C14.2614 59.5043 16.7817 56.9866 19.8553 56.9866C22.9288 56.9866 25.4492 59.5043 25.4492 62.5747Z" stroke="#4B4D99" stroke-width="5.4781" stroke-miterlimit="10" stroke-linecap="round" stroke-linejoin="round"/>
<path d="M34.2395 68.1628C37.329 68.1628 39.8334 65.6609 39.8334 62.5747C39.8334 59.4885 37.329 56.9866 34.2395 56.9866C31.1501 56.9866 28.6456 59.4885 28.6456 62.5747C28.6456 65.6609 31.1501 68.1628 34.2395 68.1628Z" fill="white"/>
<path d="M34.2395 68.1628C37.329 68.1628 39.8334 65.6609 39.8334 62.5747C39.8334 59.4885 37.329 56.9866 34.2395 56.9866C31.1501 56.9866 28.6456 59.4885 28.6456 62.5747C28.6456 65.6609 31.1501 68.1628 34.2395 68.1628Z" stroke="#4B4D99" stroke-width="5.4781" stroke-miterlimit="10" stroke-linecap="round" stroke-linejoin="round"/>
<path d="M54.2178 62.5747C54.2178 65.6451 51.6975 68.1628 48.6239 68.1628C45.5504 68.1628 43.03 65.6451 43.03 62.5747C43.03 59.5043 45.5504 56.9866 48.6239 56.9866C51.759 56.9866 54.2178 59.5043 54.2178 62.5747Z" fill="white"/>
<path d="M54.2178 62.5747C54.2178 65.6451 51.6975 68.1628 48.6239 68.1628C45.5504 68.1628 43.03 65.6451 43.03 62.5747C43.03 59.5043 45.5504 56.9866 48.6239 56.9866C51.759 56.9866 54.2178 59.5043 54.2178 62.5747Z" stroke="#4B4D99" stroke-width="5.4781" stroke-miterlimit="10" stroke-linecap="round" stroke-linejoin="round"/>
<path d="M66.758 55.1443H113.907C120.177 55.1443 125.279 60.0569 125.279 66.1363V97.9456C125.279 104.025 120.177 108.938 113.907 108.938H107.206C107.514 111.025 108.866 115.263 115.197 118.763C125.033 124.228 91.3465 120.912 79.667 108.938H66.758C60.4879 108.938 55.3857 104.025 55.3857 97.9456V66.1363C55.3857 60.1183 60.4879 55.1443 66.758 55.1443Z" fill="white"/>
<path d="M66.758 55.1443H113.907C120.177 55.1443 125.279 60.0569 125.279 66.1363V97.9456C125.279 104.025 120.177 108.938 113.907 108.938H107.206C107.514 111.025 108.866 115.263 115.197 118.763C125.033 124.228 91.3465 120.912 79.667 108.938H66.758C60.4879 108.938 55.3857 104.025 55.3857 97.9456V66.1363C55.3857 60.1183 60.4879 55.1443 66.758 55.1443Z" stroke="#4B4D99" stroke-width="5.4781" stroke-miterlimit="10" stroke-linecap="round" stroke-linejoin="round"/>
<path d="M70.3234 72.3999H110.403" stroke="#4B4D99" stroke-width="5.4781" stroke-miterlimit="10" stroke-linecap="round" stroke-linejoin="round"/>
<path d="M70.3234 83.5762H110.403" stroke="#4B4D99" stroke-width="5.4781" stroke-miterlimit="10" stroke-linecap="round" stroke-linejoin="round"/>
<path d="M70.3234 94.7523H110.403" stroke="#4B4D99" stroke-width="5.4781" stroke-miterlimit="10" stroke-linecap="round" stroke-linejoin="round"/>
</g>
<defs>
<clipPath id="clip0_126_1135">
<rect width="127" height="123" fill="white"/>
</clipPath>
</defs>
</svg>
