<svg width="104" height="124" viewBox="0 0 104 124" fill="none" xmlns="http://www.w3.org/2000/svg">
<g clip-path="url(#clip0_126_1061)">
<path d="M74.6115 5.14054C72.268 4.32558 69.7345 3.63599 67.0743 3.07179C62.514 2.13144 57.7004 1.56724 53.4568 1.818C44.7795 2.25682 34.6455 3.32255 27.3617 8.46309C21.218 12.7887 16.2777 16.9889 13.6809 22.1921C12.0974 25.3266 10.4507 31.1567 10.514 35.7331C10.5773 39.4317 12.6675 45.3246 10.0706 50.3397C7.28379 55.6057 4.87697 58.2386 2.02679 63.5046C0.76004 65.8241 3.80024 67.1405 9.94396 70.7139C11.7174 71.7796 10.8307 79.9292 10.8307 84.3175C10.8307 90.5238 12.0341 99.4257 23.8149 99.3003C31.732 99.2376 35.7223 103.689 36.989 106.698C39.0792 111.713 37.8758 118.859 36.9257 122.307H80.1218C78.9184 120.301 75.3082 107.575 85.2521 97.1062C95.0061 86.8251 101.403 74.9767 102.163 57.7371C103.113 36.1719 96.7162 12.726 74.6115 5.14054Z" fill="white"/>
<path d="M74.6114 5.14054C72.268 4.32558 69.7345 3.63599 67.0743 3.07179C62.514 2.13144 57.7004 1.56724 53.4568 1.818C44.7795 2.25682 34.6455 3.32255 27.3617 8.46309C21.218 12.7887 16.2777 16.9889 13.6809 22.1921C12.0974 25.3266 10.4507 31.1567 10.514 35.7331C10.5773 39.4317 12.6675 45.3246 10.0706 50.3397C7.28379 55.6057 4.87697 58.2386 2.02679 63.5045C0.76004 65.8241 3.80024 67.1405 9.94396 70.7139C11.7174 71.7796 10.8307 79.9292 10.8307 84.3175C10.8307 90.5238 12.0341 99.4257 23.8149 99.3003C31.732 99.2376 35.7223 103.689 36.989 106.698C39.0792 111.713 37.8758 118.859 36.9257 122.307H80.1218C78.9184 120.301 75.3082 107.575 85.2521 97.1062C95.0061 86.8251 101.403 74.9767 102.163 57.7371C103.113 36.1719 96.7162 12.726 74.6114 5.14054Z" stroke="#4B4D99" stroke-width="5.4781" stroke-miterlimit="10" stroke-linecap="round" stroke-linejoin="round"/>
<path d="M22.8015 45.5753C22.8015 45.5753 27.5518 49.6501 33.6321 45.5753H22.8015Z" fill="white"/>
<path d="M22.8015 45.5753C22.8015 45.5753 27.5518 49.6501 33.6321 45.5753" stroke="#4B4D99" stroke-width="5.4781" stroke-miterlimit="10" stroke-linecap="round" stroke-linejoin="round"/>
<path d="M87.4689 27.3954C87.4689 24.8251 85.3788 22.6937 82.7186 22.631V18.4935C82.7186 17.992 82.2753 17.6158 81.7686 17.6158H77.3349C77.3349 17.6785 77.3349 17.7412 77.3349 17.8039C77.3349 20.4369 75.1815 22.5683 72.5213 22.5683C69.8611 22.5683 67.7077 20.4369 67.7077 17.8039C67.7077 17.7412 67.7077 17.6785 67.7077 17.6158H63.274C62.7673 17.6158 62.3873 17.992 62.3873 18.4935V22.631C59.7271 22.631 57.5737 24.7625 57.5737 27.3954C57.5737 30.0284 59.7271 32.1598 62.3873 32.1598V36.6108C62.3873 37.1123 62.7673 37.4884 63.274 37.4884H67.7077C67.7077 34.8555 69.8611 32.8494 72.5213 32.8494C75.1815 32.8494 77.2083 34.9182 77.2083 37.4884H77.6516H81.8319C82.3386 37.4884 82.7819 37.0496 82.7819 36.6108V32.1598C85.3788 32.0971 87.4689 29.9657 87.4689 27.3954Z" fill="#4B4D99"/>
<path d="M62.4507 22.6937V18.3681C62.4507 17.8666 62.0706 17.4277 61.5006 17.4277H57.067C57.067 17.4904 57.067 17.5531 57.067 17.6158C57.067 20.2488 54.9135 22.3802 52.2533 22.3802C49.5932 22.3802 47.4397 20.2488 47.4397 17.6158C47.4397 17.5531 47.4397 17.4904 47.4397 17.4277H43.0061C42.4994 17.4277 42.056 17.8666 42.056 18.3681V22.5683C39.3958 22.5683 37.2424 24.6997 37.2424 27.3327C37.2424 29.9657 39.3958 32.0971 42.056 32.0971V36.6107C42.056 37.1123 42.436 37.5511 43.0061 37.5511H47.2497C47.2497 40.1841 49.5298 42.5036 52.19 42.5036C54.8502 42.5036 57.067 40.1841 57.067 37.5511H61.5006C62.0073 37.5511 62.4507 37.175 62.4507 36.6107V32.0971C62.3873 32.0971 62.3873 32.0971 62.3873 32.0971C59.7271 32.0971 57.7003 30.0283 57.7003 27.3954C57.7003 22.9444 62.4507 22.6937 62.4507 22.6937Z" fill="#FBCF71"/>
<path d="M82.6553 42.4409H82.7186V38.2407C82.7186 37.7392 82.3386 37.3003 81.8319 37.3003H77.3983C77.2716 34.7301 75.1815 32.724 72.5846 32.724C69.9878 32.724 67.8977 34.7301 67.771 37.3003H63.3374C62.8307 37.3003 62.3873 37.7392 62.3873 38.2407V42.4409C65.0475 42.4409 67.201 44.5723 67.201 47.2053C67.201 49.8383 65.0475 51.9697 62.3873 51.9697V56.4833C62.3873 56.9849 62.8307 57.4237 63.3374 57.4237H67.771C67.771 60.0567 69.9245 62.1881 72.5846 62.1881C75.2448 62.1881 77.3983 60.0567 77.3983 57.4237H81.8319C82.3386 57.4237 82.7186 56.9849 82.7186 56.4833V51.9697C82.6553 51.9697 82.6553 51.9697 82.6553 51.9697C79.9951 51.9697 77.8417 49.8383 77.8417 47.2053C77.8417 44.5723 79.9951 42.4409 82.6553 42.4409Z" fill="#FBCF71"/>
<path d="M67.1376 47.2052C67.1376 44.635 65.0475 42.5035 62.4507 42.4408V38.2406C62.4507 37.7391 62.0073 37.3003 61.5006 37.3003H57.067C57.067 37.363 57.067 37.4257 57.067 37.4884C57.067 40.1213 54.9135 42.2528 52.2533 42.2528C49.5932 42.2528 47.4397 40.1213 47.4397 37.4884C47.4397 37.4257 47.4397 37.363 47.4397 37.3003H43.0061C42.4994 37.3003 42.056 37.7391 42.056 38.2406V42.4408C44.7162 42.4408 46.8697 44.5723 46.8697 47.2052C46.8697 49.8382 44.7162 51.9697 42.056 51.9697V56.4833C42.056 56.9848 42.4994 57.4236 43.0061 57.4236H47.4397C47.4397 60.0566 49.5932 62.1881 52.2533 62.1881C54.9135 62.1881 57.067 60.0566 57.067 57.4236H61.5006C62.0073 57.4236 62.4507 56.9848 62.4507 56.4833V51.9697C65.0475 51.9697 67.1376 49.8382 67.1376 47.2052Z" fill="#4B4D99"/>
</g>
<defs>
<clipPath id="clip0_126_1061">
<rect width="104" height="124" fill="white"/>
</clipPath>
</defs>
</svg>
