<svg width="107" height="135" viewBox="0 0 107 135" fill="none" xmlns="http://www.w3.org/2000/svg">
<g clip-path="url(#clip0_126_1082)">
<path d="M105.181 126.027C105.181 129.796 101.946 132.838 97.971 132.838H9.02891C5.05347 132.838 1.81921 129.796 1.81921 126.027V26.8392C1.81921 23.0701 5.05347 20.0283 9.02891 20.0283H97.971C101.946 20.0283 105.181 23.0701 105.181 26.8392V126.027Z" fill="white"/>
<path d="M105.181 126.027C105.181 129.796 101.946 132.838 97.971 132.838H9.02891C5.05347 132.838 1.81921 129.796 1.81921 126.027V26.8392C1.81921 23.0701 5.05347 20.0283 9.02891 20.0283H97.971C101.946 20.0283 105.181 23.0701 105.181 26.8392V126.027Z" stroke="#4B4D99" stroke-width="5.4781" stroke-miterlimit="10" stroke-linecap="round" stroke-linejoin="round"/>
<path d="M35.9811 75.838C35.9811 76.4993 35.3746 77.0944 34.6335 77.0944H20.0793C19.3381 77.0944 18.7317 76.5654 18.7317 75.838V61.555C18.7317 60.8937 19.3381 60.2986 20.0793 60.2986H34.7008C35.442 60.2986 36.0484 60.8276 36.0484 61.555V75.838H35.9811Z" fill="white"/>
<path d="M35.9811 75.838C35.9811 76.4993 35.3746 77.0944 34.6335 77.0944H20.0793C19.3381 77.0944 18.7317 76.5654 18.7317 75.838V61.555C18.7317 60.8937 19.3381 60.2986 20.0793 60.2986H34.7008C35.442 60.2986 36.0484 60.8276 36.0484 61.555V75.838H35.9811Z" stroke="#4B4D99" stroke-width="5.4781" stroke-miterlimit="10" stroke-linecap="round" stroke-linejoin="round"/>
<path d="M50.5352 62.2162H88.2682" stroke="#4B4D99" stroke-width="5.4781" stroke-miterlimit="10" stroke-linecap="round" stroke-linejoin="round"/>
<path d="M50.5352 68.6965H88.2682" stroke="#4B4D99" stroke-width="5.4781" stroke-miterlimit="10" stroke-linecap="round" stroke-linejoin="round"/>
<path d="M50.5352 75.1768H88.2682" stroke="#4B4D99" stroke-width="5.4781" stroke-miterlimit="10" stroke-linecap="round" stroke-linejoin="round"/>
<path d="M35.9811 100.701C35.9811 101.362 35.3746 101.958 34.6335 101.958H20.0793C19.3381 101.958 18.7317 101.429 18.7317 100.701V86.4181C18.7317 85.7569 19.3381 85.1617 20.0793 85.1617H34.7008C35.442 85.1617 36.0484 85.6907 36.0484 86.4181V100.701H35.9811Z" fill="white"/>
<path d="M35.9811 100.701C35.9811 101.362 35.3746 101.958 34.6335 101.958H20.0793C19.3381 101.958 18.7317 101.429 18.7317 100.701V86.4181C18.7317 85.7569 19.3381 85.1617 20.0793 85.1617H34.7008C35.442 85.1617 36.0484 85.6907 36.0484 86.4181V100.701H35.9811Z" stroke="#4B4D99" stroke-width="5.4781" stroke-miterlimit="10" stroke-linecap="round" stroke-linejoin="round"/>
<path d="M50.5352 87.0793H88.2682" stroke="#4B4D99" stroke-width="5.4781" stroke-miterlimit="10" stroke-linecap="round" stroke-linejoin="round"/>
<path d="M50.5352 93.5597H88.2682" stroke="#4B4D99" stroke-width="5.4781" stroke-miterlimit="10" stroke-linecap="round" stroke-linejoin="round"/>
<path d="M50.5352 99.9738H88.2682" stroke="#4B4D99" stroke-width="5.4781" stroke-miterlimit="10" stroke-linecap="round" stroke-linejoin="round"/>
<path d="M87.2574 122.589C87.2574 123.051 86.8532 123.448 86.3141 123.448H24.5937C24.0547 123.448 23.6504 123.051 23.6504 122.589V114.191C23.6504 113.662 24.0547 113.331 24.5937 113.331H86.3141C86.8532 113.331 87.2574 113.728 87.2574 114.191V122.589Z" fill="white"/>
<path d="M87.2574 122.589C87.2574 123.051 86.8532 123.448 86.3141 123.448H24.5937C24.0547 123.448 23.6504 123.051 23.6504 122.589V114.191C23.6504 113.662 24.0547 113.331 24.5937 113.331H86.3141C86.8532 113.331 87.2574 113.728 87.2574 114.191V122.589Z" stroke="#4B4D99" stroke-width="5.4781" stroke-miterlimit="10" stroke-linecap="round" stroke-linejoin="round"/>
<path d="M70.2777 4.22443C70.4125 4.22443 70.4799 4.22443 70.6146 4.28927C70.4799 4.28927 70.3451 4.28927 70.2777 4.22443Z" fill="#FBCF71"/>
<path d="M32.6121 4.62114C32.8142 4.48889 32.949 4.29051 33.1511 4.15826C33.0163 4.29051 32.8142 4.48889 32.6121 4.62114Z" fill="#FBCF71"/>
<path d="M90.8287 33.7824C89.4811 36.8242 86.1794 38.345 82.6756 37.4854C82.2714 37.3532 82.0018 36.9564 82.0692 36.5597C82.204 36.1629 82.6083 35.8984 83.0799 36.0307C85.7078 36.6919 88.1335 35.6339 89.2115 33.4518C88.403 33.2534 87.5944 32.9889 86.7859 32.7244C86.3816 32.5921 86.112 32.1293 86.3142 31.7325C86.449 31.3358 86.9206 31.1374 87.3249 31.2696C89.1442 31.8648 90.9634 32.3938 92.9175 32.526C93.5239 31.997 92.7827 30.0794 91.9741 29.0875C91.0982 27.8972 90.2222 27.3021 89.4811 27.3021C89.0094 27.3021 88.6725 26.9715 88.6725 26.5747C88.6725 26.178 89.0094 25.7812 89.4811 25.7812C90.7613 25.7812 92.0415 26.5747 93.3217 28.1617C93.8608 28.8891 94.8041 30.4761 94.8041 31.8648C94.8041 32.1293 94.8041 32.3276 94.7367 32.526C96.017 32.4599 97.2972 32.2615 98.5774 31.7325C98.1058 26.9054 93.8608 23.1362 88.6051 23.1362C87.527 23.1362 86.5163 23.3346 85.5056 23.5991C85.3709 23.4007 85.3035 23.2685 85.1687 23.0701C87.1901 21.8137 88.4704 19.6977 88.4704 17.2511C88.4704 13.4158 85.1687 10.3079 81.1259 10.3079C79.0371 10.3079 77.0831 11.1676 75.7355 12.4901C76.005 11.8288 76.1397 11.1014 76.1397 10.3079C76.1397 7.26616 73.7141 4.7534 70.6146 4.29053C70.0755 5.87753 69.3343 7.33229 68.5258 8.65479C68.5258 8.65479 68.5932 8.65479 68.5932 8.72092C70.0081 9.9773 70.6146 12.0933 70.6146 14.2093C70.6146 15.6641 70.2777 17.0527 69.6712 18.0446C69.4691 18.4413 68.9301 18.5075 68.5932 18.3091C68.1889 18.1107 68.0541 17.6478 68.3236 17.2511C69.5365 15.3334 69.1996 11.6966 67.7172 10.0434C66.8413 11.4321 65.8979 12.4901 64.9546 13.3497C64.6177 13.6803 64.146 13.6142 63.8091 13.3497C63.4722 13.0191 63.4722 12.5562 63.8091 12.2917C64.6851 11.4982 65.561 10.5724 66.3696 9.31605C67.3129 7.72904 68.3236 6.07591 68.9974 4.29053C67.3803 4.4889 65.8979 5.21628 64.8872 6.34041C64.8872 6.20816 64.9546 6.00978 64.9546 5.87753C64.9546 4.02603 63.4049 2.57127 61.4508 2.57127C59.8337 2.57127 58.5535 3.56315 58.0818 4.88565C56.9363 2.50515 54.4433 0.785889 51.4785 0.785889C47.5705 0.785889 44.4036 3.76153 44.4036 7.46454C44.4036 7.59679 44.4036 7.72904 44.4036 7.86129C44.2015 7.92742 44.0667 7.92742 43.8646 7.99354C43.2581 5.08403 40.4955 2.83577 37.2613 2.83577C36.0484 2.83577 34.903 3.1664 33.8923 3.6954C36.4527 5.34853 38.2046 7.53067 39.5522 9.91117C39.6196 9.91117 39.6196 9.84505 39.687 9.84505C43.595 8.72092 47.5705 10.5063 49.3224 14.0771C49.3897 14.2093 49.3897 14.2754 49.3897 14.4077C49.3897 14.6722 49.1876 15.0028 48.9181 15.1351C48.5138 15.3334 48.0421 15.1351 47.84 14.7383C46.425 11.8288 43.3929 10.4402 40.226 11.2998C40.6977 12.2256 41.102 13.2174 41.4389 14.1432C41.5062 14.2093 41.5062 14.3416 41.5062 14.4077C41.5062 14.7383 41.3041 15.0028 40.9672 15.1351C40.5629 15.2673 40.0913 15.0689 39.9565 14.6722C39.1479 12.6223 38.2046 10.5724 36.857 8.72092H36.7896C35.5768 8.52254 34.2965 10.9031 33.8923 12.2917C33.4206 14.0109 33.4206 15.3334 34.027 15.9947C34.2965 16.3253 34.2965 16.7882 33.9596 17.0527C33.6227 17.3172 33.0837 17.3172 32.8142 16.9866C31.8709 15.9286 31.6687 14.2093 32.3425 11.9611C32.6794 10.8369 33.8249 8.12579 35.7789 7.46454C34.903 6.47266 33.8249 5.61303 32.5447 4.81953C31.3318 5.94366 30.5232 7.59679 30.5232 9.38217C30.5232 9.77892 30.5232 10.1096 30.5906 10.4402C29.7821 9.91117 28.8387 9.58055 27.7607 9.58055C24.9981 9.58055 22.8419 11.6966 22.8419 14.2754C22.8419 15.1351 23.1114 15.9286 23.5157 16.656C20.3488 16.8543 17.8557 19.3671 17.8557 22.3427C17.8557 23.2685 18.1253 24.1281 18.5295 24.9216C18.26 24.3926 18.0579 23.8636 17.9905 23.2685C20.0119 23.6652 21.9659 24.3926 23.7178 25.1861C23.7178 25.1861 23.7178 25.12 23.7852 25.12C25.874 22.8056 30.9275 22.2766 33.5554 23.533C33.8249 23.6652 34.027 23.9297 34.027 24.1942C34.027 24.3265 34.027 24.3926 33.9596 24.5249C33.7575 24.9216 33.2858 25.0539 32.8816 24.8555C30.7254 23.8636 26.9521 24.3926 25.335 25.8474C26.8847 26.5747 28.0302 27.4344 28.9735 28.294C29.1756 28.4262 29.243 28.6246 29.243 28.8891C29.243 29.0875 29.1756 29.2198 29.0409 29.4181C28.7714 29.7488 28.2323 29.7488 27.8954 29.4843C26.9521 28.6908 25.9414 27.8972 24.5938 27.3021C22.7071 26.4425 20.7531 25.5829 18.6643 25.0539C19.0012 25.649 19.4055 26.2441 19.9445 26.707C19.9445 26.707 19.9445 26.707 19.9445 26.7731C19.0686 26.4425 18.0579 26.3102 17.0472 26.3102C12.3306 26.3102 8.55725 29.9471 8.55725 34.3775C8.55725 38.4773 11.7915 41.8497 15.9691 42.3787V42.4448H91.2329C91.2329 42.4448 98.2405 42.1803 98.6448 33.7824C95.8822 34.2453 93.3217 34.2453 90.8287 33.7824ZM43.8646 35.4355C42.8539 36.2952 41.8431 37.287 40.9672 38.6095C40.226 39.7337 39.4848 40.8578 38.811 42.1142H36.857C37.396 41.1223 37.9351 40.1304 38.4741 39.2047C38.4741 39.2047 38.4067 39.2047 38.4067 39.1385C36.9244 37.7499 36.318 35.3694 36.4527 33.1211C36.5201 31.5341 36.9244 30.0133 37.5982 29.0214C37.8677 28.6246 38.4067 28.4924 38.811 28.7569C39.2153 29.0214 39.3501 29.4843 39.0806 29.881C37.6656 31.9309 37.8677 35.8984 39.4175 37.7499C40.4282 36.229 41.5062 35.171 42.5843 34.2453C42.9212 33.9146 43.5277 33.9808 43.7972 34.3114C44.2688 34.5759 44.2015 35.1049 43.8646 35.4355ZM72.2991 36.8242C71.4231 37.6177 68.8627 39.3369 66.8413 38.9402C66.976 39.9982 67.3129 40.99 67.7846 42.0481H66.0327C65.0894 39.6675 64.8872 37.2209 65.0894 34.8404C65.022 34.8404 65.022 34.8404 64.9546 34.8404C60.9792 33.7824 58.6209 30.3439 59.1599 26.3764C59.1599 26.2441 59.2273 26.178 59.2947 26.0457C59.4294 25.7812 59.7663 25.649 60.1032 25.7151C60.5749 25.7812 60.8444 26.178 60.777 26.5747C60.3727 29.7488 62.192 32.4599 65.2915 33.3195C65.4263 32.3276 65.6284 31.2696 65.8306 30.2778C65.8306 30.2116 65.8979 30.0794 65.9653 30.0133C66.1675 29.7488 66.5044 29.6165 66.8413 29.6826C67.2455 29.7488 67.5824 30.1455 67.4477 30.6084C66.976 32.7244 66.5717 34.9726 66.7065 37.2209L66.7739 37.287C67.6498 38.0805 70.1429 36.6919 71.221 35.7662C72.636 34.5098 73.3098 33.4518 73.175 32.5921C73.1076 32.1954 73.3772 31.7986 73.8488 31.7325C74.3205 31.6664 74.7248 31.9309 74.7921 32.3938C74.9943 33.7163 74.1857 35.2371 72.2991 36.8242Z" fill="#FBCF71"/>
</g>
<defs>
<clipPath id="clip0_126_1082">
<rect width="107" height="133.838" fill="white" transform="translate(0 0.785889)"/>
</clipPath>
</defs>
</svg>
